<svg id="Layer_1" data-name="Layer 1" xmlns="http://www.w3.org/2000/svg" viewBox="0 0 55.82 60">
  <defs>
    <style>
      .cls-1 {
        fill: #d4d8d8;
      }

      .cls-2 {
        fill: #484c4c;
      }

      .cls-3 {
        fill: #fff;
      }
    </style>
  </defs>
  <title>trucks_in_action_icon</title>
  <g>
    <g>
      <path class="cls-1" d="M80.88,64.74a18.21,18.21,0,0,1-1-6.13h6.43a18.2,18.2,0,0,1-1,6.14H80.88Z" transform="translate(-72.09 -5)"/>
      <path class="cls-2" d="M86.07,58.82a18,18,0,0,1-.94,5.71H81a18,18,0,0,1-.94-5.71h6m0.43-.43H79.65a18.18,18.18,0,0,0,1.08,6.56h4.69a18.17,18.17,0,0,0,1.08-6.57h0Z" transform="translate(-72.09 -5)"/>
    </g>
    <path class="cls-2" d="M86.51,58.39A18.17,18.17,0,0,1,85.43,65H85a18.18,18.18,0,0,1-1.08-6.56h2.58Z" transform="translate(-72.09 -5)"/>
    <polygon class="cls-2" points="18.05 56.01 12.09 56.01 11.91 54.29 18.05 54.29 18.05 56.01"/>
    <g>
      <path class="cls-1" d="M114.31,64.74a18.2,18.2,0,0,1-1-6.14h6.43a18.19,18.19,0,0,1-1,6.13h-4.41Z" transform="translate(-72.09 -5)"/>
      <path class="cls-2" d="M119.5,58.82a18,18,0,0,1-.94,5.71h-4.11a18,18,0,0,1-.94-5.71h6m0.43-.43h-6.86A18.17,18.17,0,0,0,114.15,65h4.69a18.18,18.18,0,0,0,1.08-6.56h0Z" transform="translate(-72.09 -5)"/>
    </g>
    <path class="cls-2" d="M113.08,58.39A18.17,18.17,0,0,0,114.15,65h0.4a18.18,18.18,0,0,0,1.08-6.56h-2.57Z" transform="translate(-72.09 -5)"/>
    <polygon class="cls-2" points="37.37 56.01 43.33 56.01 43.5 54.29 37.37 54.29 37.37 56.01"/>
    <g>
      <path class="cls-3" d="M90.35,56.53A1.49,1.49,0,0,1,89,55.67a1.59,1.59,0,0,0-1.43-.86h-9V48.42a1.71,1.71,0,0,0-.41-1.1l-0.45-.51-0.12-.13L77,46.13a1.22,1.22,0,0,1-.29-0.42A10.08,10.08,0,0,1,76,41.87a18.14,18.14,0,0,1,.7-4.83A1.23,1.23,0,0,1,77,36.62l0.27-.27a1.71,1.71,0,0,0,.5-1.07l1.59-20.37a1.5,1.5,0,0,1,1.33-1.37C85.09,13.07,95.79,12,99.73,12c4.09,0,15.74,1.2,19.22,1.56a1.5,1.5,0,0,1,1.34,1.37l1.59,20.37a1.66,1.66,0,0,0,.5,1.07l0.29,0.28a1.23,1.23,0,0,1,.27.4,17.06,17.06,0,0,1,.7,4.77,10.15,10.15,0,0,1-.71,3.9,1.23,1.23,0,0,1-.3.42l-0.65.6-0.44.44a1.71,1.71,0,0,0-.49,1.18v6.47h-9a1.59,1.59,0,0,0-1.43.86,1.49,1.49,0,0,1-1.35.86H90.35Z" transform="translate(-72.09 -5)"/>
      <path class="cls-2" d="M99.72,12.17c4.07,0,15.72,1.19,19.19,1.56A1.29,1.29,0,0,1,120,14.91l1.59,20.37a1.89,1.89,0,0,0,.57,1.21l0.29,0.28a1,1,0,0,1,.23.33,16.78,16.78,0,0,1,.69,4.69,9.94,9.94,0,0,1-.69,3.82,1,1,0,0,1-.24.34l-0.66.62-0.43.43a1.87,1.87,0,0,0-.55,1.33v6.26H112a1.81,1.81,0,0,0-1.63,1,1.28,1.28,0,0,1-1.15.71H90.37a1.28,1.28,0,0,1-1.15-.71,1.81,1.81,0,0,0-1.62-1H78.78V48.38a1.89,1.89,0,0,0-.46-1.24l-0.45-.51-0.14-.14-0.59-.55a1,1,0,0,1-.25-0.34,9.85,9.85,0,0,1-.69-3.75,17.81,17.81,0,0,1,.69-4.75,1,1,0,0,1,.24-0.36l0.27-.27A1.89,1.89,0,0,0,78,35.26l1.59-20.37a1.29,1.29,0,0,1,1.14-1.17c3.43-.37,15-1.56,19-1.56m0-.43c-4,0-15.13,1.14-19.08,1.56a1.71,1.71,0,0,0-1.53,1.57L77.53,35.22a1.46,1.46,0,0,1-.44.93l-0.27.27a1.44,1.44,0,0,0-.33.51,18.25,18.25,0,0,0-.72,4.9,10.23,10.23,0,0,0,.73,3.92,1.43,1.43,0,0,0,.35.49l0.59,0.55,0.1,0.11L78,47.41a1.46,1.46,0,0,1,.36,1V55h9.23a1.39,1.39,0,0,1,1.24.76,1.71,1.71,0,0,0,1.53,1h18.86a1.71,1.71,0,0,0,1.53-1h0A1.39,1.39,0,0,1,112,55h9.23V48.3a1.46,1.46,0,0,1,.43-1l0.43-.43,0.65-.61a1.43,1.43,0,0,0,.34-0.49,10.29,10.29,0,0,0,.73-4,17.07,17.07,0,0,0-.72-4.86,1.43,1.43,0,0,0-.33-0.47l-0.29-.28a1.46,1.46,0,0,1-.44-0.93l-1.59-20.37a1.71,1.71,0,0,0-1.53-1.57c-4-.42-15.19-1.56-19.23-1.56h0Z" transform="translate(-72.09 -5)"/>
    </g>
    <g>
      <path class="cls-1" d="M79.73,59.08a2.37,2.37,0,0,1-2.33-2l-0.12-.86a2.36,2.36,0,0,1,2-2.67l0.33,0h9a1.17,1.17,0,0,1,1,.64,1.92,1.92,0,0,0,1.71,1.07h16.75a1.92,1.92,0,0,0,1.71-1.07,1.17,1.17,0,0,1,1-.64h9a2.36,2.36,0,0,1,2.33,2.69l-0.12.86a2.37,2.37,0,0,1-2.33,2H79.73Z" transform="translate(-72.09 -5)"/>
      <path class="cls-2" d="M120,53.72a2.14,2.14,0,0,1,2.12,2.44L122,57a2.15,2.15,0,0,1-2.12,1.84H79.73A2.15,2.15,0,0,1,77.61,57l-0.12-.86a2.14,2.14,0,0,1,1.82-2.42l0.3,0h9a1,1,0,0,1,.86.53,2.13,2.13,0,0,0,1.92,1.18h16.73a2.13,2.13,0,0,0,1.92-1.18,1,1,0,0,1,.86-0.53h9m0-.43h-9a1.39,1.39,0,0,0-1.24.76,1.71,1.71,0,0,1-1.53,1H91.41a1.71,1.71,0,0,1-1.53-1h0a1.39,1.39,0,0,0-1.24-.76h-9A2.57,2.57,0,0,0,77,56.22l0.12,0.86a2.57,2.57,0,0,0,2.57,2.21h40.11a2.57,2.57,0,0,0,2.57-2.21l0.12-.86a2.57,2.57,0,0,0-2.19-2.91l-0.39,0h0Z" transform="translate(-72.09 -5)"/>
    </g>
    <g>
      <path class="cls-3" d="M117.48,46.69H82.11c-0.13,0-1.29-.14-2.68-5a12.86,12.86,0,0,1-.51-4.29,0.64,0.64,0,0,1,.64-0.61H120a0.64,0.64,0,0,1,.64.61,12.86,12.86,0,0,1-.51,4.29C118.77,46.55,117.58,46.69,117.48,46.69Z" transform="translate(-72.09 -5)"/>
      <path class="cls-2" d="M120,37a0.43,0.43,0,0,1,.43.41,12.66,12.66,0,0,1-.51,4.19c-1.29,4.52-2.34,4.83-2.47,4.84H82.16c-0.12,0-1.17-.33-2.47-4.85a12.66,12.66,0,0,1-.51-4.19A0.43,0.43,0,0,1,79.62,37h40.47m0-.43H79.56a0.86,0.86,0,0,0-.86.81,13.15,13.15,0,0,0,.51,4.33c1.36,4.76,2.57,5.14,2.89,5.14h35.37c0.36,0,1.53-.4,2.89-5.14a13.15,13.15,0,0,0,.51-4.33,0.86,0.86,0,0,0-.86-0.81h0.07Z" transform="translate(-72.09 -5)"/>
    </g>
    <g>
      <path class="cls-3" d="M113.48,51.39a0.64,0.64,0,0,1-.62-0.86l0.53-1.71a0.63,0.63,0,0,1,.62-0.45h7v3h-7.53v0Z" transform="translate(-72.09 -5)"/>
      <path class="cls-2" d="M120.79,48.6v2.57h-7.31a0.43,0.43,0,0,1-.41-0.56l0.53-1.71a0.43,0.43,0,0,1,.41-0.3h6.78m0.43-.43H114a0.86,0.86,0,0,0-.86.6l-0.53,1.71a0.86,0.86,0,0,0,.86,1.11h7.71V48.17h0Z" transform="translate(-72.09 -5)"/>
    </g>
    <g>
      <path class="cls-3" d="M78.58,51.39v-3h7a0.64,0.64,0,0,1,.62.45l0.53,1.71a0.64,0.64,0,0,1-.62.86H78.58v0Z" transform="translate(-72.09 -5)"/>
      <path class="cls-2" d="M85.57,48.6a0.43,0.43,0,0,1,.41.3l0.53,1.71a0.43,0.43,0,0,1-.28.54l-0.13,0H78.79V48.6h6.78m0-.43H78.36V51.6h7.71a0.86,0.86,0,0,0,.86-1.11L86.4,48.77a0.86,0.86,0,0,0-.86-0.6h0Z" transform="translate(-72.09 -5)"/>
    </g>
    <path class="cls-2" d="M115.72,43l-0.67,1.71H84.45L83.81,43h31.9m0.54-.43h-33l0.94,2.57h31.11Z" transform="translate(-72.09 -5)"/>
    <polygon class="cls-2" points="16.2 43.7 39.09 43.7 39.22 43.28 16.08 43.28 16.2 43.7"/>
    <polygon class="cls-2" points="16.73 45.37 38.56 45.37 38.7 44.95 16.61 44.95 16.73 45.37"/>
    <polygon class="cls-2" points="17.26 47.04 38.04 47.04 38.17 46.62 17.13 46.62 17.26 47.04"/>
    <polygon class="cls-2" points="17.79 48.71 37.51 48.71 37.64 48.29 17.65 48.29 17.79 48.71"/>
    <g>
      <path class="cls-1" d="M117.46,13.37c-2.13-.21-13.41-1.26-17.67-1.26s-15.54,1.05-17.67,1.26l1.61-4a4,4,0,0,1,2.66-2.12,64,64,0,0,1,13.41-2,63.9,63.9,0,0,1,13.4,2,4,4,0,0,1,2.68,2.13Z" transform="translate(-72.09 -5)"/>
      <path class="cls-2" d="M99.79,5.47a64,64,0,0,1,13.35,2,3.82,3.82,0,0,1,2.51,2l1.47,3.69c-2.8-.27-13.26-1.27-17.33-1.27s-14.57,1-17.34,1.23l1.47-3.65a3.84,3.84,0,0,1,2.53-2,63.64,63.64,0,0,1,13.35-2m0-.43A64,64,0,0,0,86.35,7a4.29,4.29,0,0,0-2.81,2.25l-1.71,4.34s13.14-1.29,18-1.29,18,1.29,18,1.29l-1.71-4.34A4.29,4.29,0,0,0,113.29,7,64.07,64.07,0,0,0,99.85,5h0Z" transform="translate(-72.09 -5)"/>
    </g>
    <rect class="cls-2" x="17.85" y="54.23" width="19.71" height="0.86"/>
    <path class="cls-2" d="M99.79,12.33c4.11,0,14.73,1,19.1,1.42A1.28,1.28,0,0,1,120,14.94l1.3,16.49a0.43,0.43,0,0,1-.39.46H78.68a0.43,0.43,0,0,1-.43-0.43s0,0,0,0l1.29-16.5a1.28,1.28,0,0,1,1.17-1.19c4.37-.43,15-1.42,19.1-1.42m0-.43c-4.18,0-15.19,1-19.14,1.42a1.71,1.71,0,0,0-1.53,1.58L77.85,31.38a0.86,0.86,0,0,0,.79.92h42.3a0.86,0.86,0,0,0,.86-0.85s0,0,0-.07l-1.3-16.49A1.71,1.71,0,0,0,119,13.31c-3.94-.39-15-1.42-19.14-1.42h0Z" transform="translate(-72.09 -5)"/>
    <path class="cls-2" d="M99.79,14c3.57,0,14.86,1.14,18.24,1.49a0.43,0.43,0,0,1,.38.39l1.06,12.86a1.29,1.29,0,0,1-1.18,1.38H81.45a1.29,1.29,0,0,1-1.29-1.28s0-.07,0-0.11l1-12.86a0.43,0.43,0,0,1,.38-0.39c3.38-.34,14.67-1.46,18.25-1.46m0-.43c-3.63,0-15.29,1.16-18.29,1.47a0.86,0.86,0,0,0-.76.79l-1,12.86a1.71,1.71,0,0,0,1.58,1.84H118.2a1.71,1.71,0,0,0,1.72-1.71s0-.1,0-0.14l-1.06-12.86a0.86,0.86,0,0,0-.76-0.78c-3-.31-14.65-1.49-18.28-1.49h0Z" transform="translate(-72.09 -5)"/>
    <path class="cls-2" d="M123.13,18.85a2.15,2.15,0,0,1,2.13,2l0.67,8.57a2.14,2.14,0,0,1-2,2.31h0l-2.13.16-1-12.86,2.13-.16h0.17m0-.43h-0.21l-2.57.2,1.06,13.71,2.57-.2a2.57,2.57,0,0,0,2.37-2.76l-0.67-8.57a2.57,2.57,0,0,0-2.57-2.37h0Z" transform="translate(-72.09 -5)"/>
    <path class="cls-2" d="M76.48,18.85h0.17L78.79,19l-1,12.86-2.13-.16a2.14,2.14,0,0,1-2-2.3h0l0.67-8.57a2.15,2.15,0,0,1,2.13-2m0-.43a2.57,2.57,0,0,0-2.57,2.37l-0.67,8.57a2.57,2.57,0,0,0,2.37,2.76l2.57,0.2,1.06-13.71-2.57-.2H76.48Z" transform="translate(-72.09 -5)"/>
    <path class="cls-2" d="M126.13,26.82h0m0.45-6.06h-0.07l-1.71.14a0.86,0.86,0,0,0-.79.92l0.46,6a0.86,0.86,0,0,0,.86.79h0.07l1.71-.14a0.86,0.86,0,0,0,.79-0.92l-0.46-6a0.86,0.86,0,0,0-.86-0.79h0Z" transform="translate(-72.09 -5)"/>
    <path class="cls-2" d="M73.41,20.75a0.86,0.86,0,0,0-.86.79l-0.46,6a0.86,0.86,0,0,0,.79.92l1.71,0.14h0.07a0.86,0.86,0,0,0,.86-0.79l0.46-6a0.86,0.86,0,0,0-.79-0.92l-1.71-.14H73.41Z" transform="translate(-72.09 -5)"/>
    <path class="cls-2" d="M122.26,36.63l0.15,0.15a1,1,0,0,1,.23.33,16.78,16.78,0,0,1,.69,4.69,9.94,9.94,0,0,1-.69,3.82,1,1,0,0,1-.24.34l-0.53.49h-7.32l0.06-.08a11.19,11.19,0,0,0,1.82-4.58c0.15-1.11.34-3.81,0.41-4.8l5.43-.38m0.16-.44-5.71.41s-0.27,3.8-.46,5.14a10.85,10.85,0,0,1-1.71,4.4,1.71,1.71,0,0,1-1.41.75h8.95l0.65-.61a1.43,1.43,0,0,0,.34-0.49,10.29,10.29,0,0,0,.73-4,17.07,17.07,0,0,0-.72-4.86,1.43,1.43,0,0,0-.33-0.47l-0.29-.28h0Zm-9.14,10.7" transform="translate(-72.09 -5)"/>
    <polygon class="cls-1" points="12.31 39.97 11.47 37.82 43.94 37.82 43.11 39.97 12.31 39.97"/>
    <path class="cls-2" d="M116.17,39l-0.69,1.71-32,.22L83.36,39h32.8m0.55-.43H82.78L83,41.17h33.48Z" transform="translate(-72.09 -5)"/>
    <polygon class="cls-1" points="11.27 35.97 11.01 33.82 44.27 33.82 44.08 35.97 11.27 35.97"/>
    <path class="cls-2" d="M77.25,36.63L82.67,37c0.07,1,.25,3.69.41,4.8a11.19,11.19,0,0,0,1.82,4.58L85,46.46h-7.3L77.12,46a1,1,0,0,1-.24-0.34,9.94,9.94,0,0,1-.69-3.82,16.78,16.78,0,0,1,.69-4.69,1,1,0,0,1,.23-0.33l0.15-.15m-0.16-.44-0.29.28a1.43,1.43,0,0,0-.33.47,17.07,17.07,0,0,0-.72,4.86,10.29,10.29,0,0,0,.73,4,1.43,1.43,0,0,0,.34.49l0.65,0.61H86.6a1.71,1.71,0,0,1-1.35-.75,10.85,10.85,0,0,1-1.71-4.4c-0.19-1.35-.43-5.14-0.43-5.14l-6-.41h0Zm9.51,10.7" transform="translate(-72.09 -5)"/>
    <path class="cls-2" d="M115.51,32.32a1.29,1.29,0,0,1,1.29,1.28s0,0.07,0,.11l-0.27,2.87s-0.24,3.8-.43,5.14a10.51,10.51,0,0,1-1.71,4.22,1.28,1.28,0,0,1-1.07.56,2.13,2.13,0,0,0-2,1.51l-2.08,6.14A1.29,1.29,0,0,1,108,55H91.6a1.29,1.29,0,0,1-1.22-.86L88.3,48a2.14,2.14,0,0,0-2.07-1.51,1.28,1.28,0,0,1-1.05-.56,10.51,10.51,0,0,1-1.71-4.22C83.28,40.41,83,36.65,83,36.58l-0.27-2.85a1.29,1.29,0,0,1,1.18-1.38H84m0-.44a1.72,1.72,0,0,0-1.7,1.72c0,0.05.28,3,.28,3s0.24,3.8.43,5.14a10.85,10.85,0,0,0,1.71,4.4,1.71,1.71,0,0,0,1.41.75h0a1.71,1.71,0,0,1,1.64,1.21l2.08,6.14a1.71,1.71,0,0,0,1.63,1.17h16.39a1.71,1.71,0,0,0,1.63-1.17l2.08-6.14a1.71,1.71,0,0,1,1.64-1.21h0a1.71,1.71,0,0,0,1.41-.75,10.85,10.85,0,0,0,1.71-4.4c0.19-1.35.43-5.14,0.43-5.14l0.27-2.85a1.73,1.73,0,0,0-1.56-1.87H84.06Z" transform="translate(-72.09 -5)"/>
  </g>
</svg>
