<?xml version="1.0" encoding="utf-8"?>
<!-- Generator: Adobe Illustrator 19.2.0, SVG Export Plug-In . SVG Version: 6.00 Build 0)  -->
<svg version="1.1" id="Layer_1" xmlns="http://www.w3.org/2000/svg" xmlns:xlink="http://www.w3.org/1999/xlink" x="0px" y="0px"
	 viewBox="0 0 50 62" style="enable-background:new 0 0 50 62;" xml:space="preserve">
<style type="text/css">
	.st0{fill:#D4D8D8;}
	.st1{fill:#F0F7F7;}
</style>
<path class="st0" d="M48,0H2.2C1.1,0,0,0.9,0,2v58c0,1.1,1.1,2,2.2,2H48c1.1,0,2-0.9,2-2V2C50,0.9,49.1,0,48,0z"/>
<path class="st1" d="M48,0H2.2C1.1,0,0,0.9,0,2v58c0,1.1,1.1,2,2.2,2H48c1.1,0,2-0.9,2-2V2C50,0.9,49.1,0,48,0z M9.5,5.8h31
	c0.6,0,1,0.4,1,1s-0.4,1-1,1h-31c-0.6,0-1-0.4-1-1S8.9,5.8,9.5,5.8z M9.5,8.8h17c0.6,0,1,0.4,1,1s-0.4,1-1,1h-17c-0.6,0-1-0.4-1-1
	S8.9,8.8,9.5,8.8z M4.5,13.8h38c0.3,0,0.5,0.2,0.5,0.5s-0.2,0.5-0.5,0.5h-38c-0.3,0-0.5-0.2-0.5-0.5C4,14.1,4.2,13.8,4.5,13.8z
	 M4.5,16.8h38c0.3,0,0.5,0.2,0.5,0.5s-0.2,0.5-0.5,0.5h-38c-0.3,0-0.5-0.2-0.5-0.5C4,17.1,4.2,16.8,4.5,16.8z M4.5,19.8h37
	c0.3,0,0.5,0.2,0.5,0.5s-0.2,0.5-0.5,0.5h-37c-0.3,0-0.5-0.2-0.5-0.5C4,20.1,4.2,19.8,4.5,19.8z M4.5,22.8h39c0.3,0,0.5,0.2,0.5,0.5
	s-0.2,0.5-0.5,0.5h-39c-0.3,0-0.5-0.2-0.5-0.5C4,23.1,4.2,22.8,4.5,22.8z M4.5,25.8h38c0.3,0,0.5,0.2,0.5,0.5s-0.2,0.5-0.5,0.5h-38
	c-0.3,0-0.5-0.2-0.5-0.5C4,26.1,4.2,25.8,4.5,25.8z M4.5,28.8h39c0.3,0,0.5,0.2,0.5,0.5s-0.2,0.5-0.5,0.5h-39
	c-0.3,0-0.5-0.2-0.5-0.5C4,29.1,4.2,28.8,4.5,28.8z M4.5,31.8h38c0.3,0,0.5,0.2,0.5,0.5s-0.2,0.5-0.5,0.5h-38
	c-0.3,0-0.5-0.2-0.5-0.5C4,32.1,4.2,31.8,4.5,31.8z M4.5,34.8h39c0.3,0,0.5,0.2,0.5,0.5s-0.2,0.5-0.5,0.5h-39
	c-0.3,0-0.5-0.2-0.5-0.5C4,35.1,4.2,34.8,4.5,34.8z M4.5,37.8h37c0.3,0,0.5,0.2,0.5,0.5s-0.2,0.5-0.5,0.5h-37
	c-0.3,0-0.5-0.2-0.5-0.5C4,38.1,4.2,37.8,4.5,37.8z M4.5,40.8h38c0.3,0,0.5,0.2,0.5,0.5s-0.2,0.5-0.5,0.5h-38
	c-0.3,0-0.5-0.2-0.5-0.5C4,41.1,4.2,40.8,4.5,40.8z M10,57c-2.2,0-4-1.8-4-4s1.8-4,4-4s4,1.8,4,4S12.2,57,10,57z M21.5,44.8h-17
	c-0.3,0-0.5-0.2-0.5-0.5s0.2-0.5,0.5-0.5h17c0.3,0,0.5,0.2,0.5,0.5S21.8,44.8,21.5,44.8z M45.5,55.8h-13c-0.3,0-0.5-0.2-0.5-0.5
	s0.2-0.5,0.5-0.5h13c0.3,0,0.5,0.2,0.5,0.5S45.8,55.8,45.5,55.8z"/>
</svg>
