<svg id="Layer_1" data-name="Layer 1" xmlns="http://www.w3.org/2000/svg" viewBox="0 0 50.09 59.99">
  <defs>
    <style>
      .cls-1 {
        fill: #fff;
      }

      .cls-2 {
        fill: #484c4c;
      }

      .cls-3 {
        fill: #d4d8d8;
      }
    </style>
  </defs>
  <title>20-th_in_country_icon</title>
  <g>
    <path class="cls-1" d="M10.31,56.95l7.11,1.28a1.32,1.32,0,0,1,.78.45l4.67,5.53a2,2,0,0,0,3.23-.29L30,57.19,33.9,64a2,2,0,0,0,3.25.27l4.58-5.58a1.32,1.32,0,0,1,.81-0.46L49.66,57a2,2,0,0,0,1.39-2.94l-5-8.6a8,8,0,0,0-2.72,4.11,6.12,6.12,0,0,1-3.46,4.15L39.33,54a5.6,5.6,0,0,1-2.16.43A6.44,6.44,0,0,1,34,53.55a7.91,7.91,0,0,0-7.89,0,6.44,6.44,0,0,1-3.21.89A5.6,5.6,0,0,1,20.69,54l-0.58-.24a6.12,6.12,0,0,1-3.46-4.15,8,8,0,0,0-2.77-4.15L8.94,54A2,2,0,0,0,10.31,56.95Z" transform="translate(-4.95 -5)"/>
    <path class="cls-2" d="M14,46.23l0.25,0.24a7.38,7.38,0,0,1,1.91,3.28,6.62,6.62,0,0,0,3.75,4.48l0.58,0.24a6.1,6.1,0,0,0,2.36.47,7,7,0,0,0,3.46-1,7.41,7.41,0,0,1,7.39,0,6.94,6.94,0,0,0,3.46,1,6.1,6.1,0,0,0,2.36-.47l0.58-.24a6.62,6.62,0,0,0,3.75-4.48,7.39,7.39,0,0,1,1.92-3.29L46,46.28l4.66,8.08a1.48,1.48,0,0,1-1,2.2l-7.12,1.18a1.82,1.82,0,0,0-1.11.64L36.76,64a1.48,1.48,0,0,1-2.43-.2L30.4,56.94,30,56.19l-0.43.75-3.88,6.72a1.48,1.48,0,0,1-2.41.22l-4.67-5.53a1.82,1.82,0,0,0-1.07-.62l-7.11-1.28a1.48,1.48,0,0,1-1-2.2l4.63-8m-0.13-.77L8.94,54a2,2,0,0,0,1.37,2.94l7.11,1.28a1.32,1.32,0,0,1,.78.45l4.67,5.53a2,2,0,0,0,3.23-.29L30,57.19,33.9,64a2,2,0,0,0,3.25.27l4.58-5.58a1.32,1.32,0,0,1,.81-0.46L49.66,57a2,2,0,0,0,1.39-2.94l-5-8.6a8,8,0,0,0-2.72,4.11,6.12,6.12,0,0,1-3.46,4.15L39.33,54a5.6,5.6,0,0,1-2.16.43A6.44,6.44,0,0,1,34,53.55a7.91,7.91,0,0,0-7.89,0,6.44,6.44,0,0,1-3.21.89A5.6,5.6,0,0,1,20.69,54l-0.58-.24a6.12,6.12,0,0,1-3.46-4.15,8,8,0,0,0-2.77-4.15h0Z" transform="translate(-4.95 -5)"/>
    <rect class="cls-2" x="28.6" y="54.82" width="4.62" height="0.5" transform="translate(-37.19 49.3) rotate(-60)"/>
    <path class="cls-3" d="M54.52,39.88l-0.24.58a7.44,7.44,0,0,1-5,4.23,6.63,6.63,0,0,0-4.62,4.62,7.44,7.44,0,0,1-4.23,5l-0.58.24A7.38,7.38,0,0,1,33.29,54a6.59,6.59,0,0,0-6.57,0,7.38,7.38,0,0,1-6.54.53l-0.58-.24a7.44,7.44,0,0,1-4.23-5,6.63,6.63,0,0,0-4.62-4.62,7.44,7.44,0,0,1-5-4.23l-0.24-.58A7.38,7.38,0,0,1,6,33.33a6.59,6.59,0,0,0,0-6.57,7.38,7.38,0,0,1-.53-6.54l0.24-.58a7.44,7.44,0,0,1,5-4.23,6.63,6.63,0,0,0,4.62-4.62,7.44,7.44,0,0,1,4.23-5l0.58-.24a7.38,7.38,0,0,1,6.54.53,6.59,6.59,0,0,0,6.57,0,7.38,7.38,0,0,1,6.54-.53l0.58,0.24a7.44,7.44,0,0,1,4.23,5,6.63,6.63,0,0,0,4.62,4.62,7.44,7.44,0,0,1,5,4.23l0.24,0.58A7.38,7.38,0,0,1,54,26.76a6.59,6.59,0,0,0,0,6.57A7.38,7.38,0,0,1,54.52,39.88Z" transform="translate(-4.95 -5)"/>
    <path class="cls-2" d="M22.84,5.5a7.27,7.27,0,0,1,3.62,1,7.09,7.09,0,0,0,7.07,0,7.27,7.27,0,0,1,3.62-1A6.42,6.42,0,0,1,39.64,6l0.58,0.24a6.93,6.93,0,0,1,3.94,4.69,7.12,7.12,0,0,0,5,5,6.93,6.93,0,0,1,4.69,3.94l0.24,0.58a6.86,6.86,0,0,1-.51,6.1,7.09,7.09,0,0,0,0,7.07,6.86,6.86,0,0,1,.51,6.1l-0.24.58a6.93,6.93,0,0,1-4.69,3.94,7.13,7.13,0,0,0-5,5,6.93,6.93,0,0,1-3.94,4.69l-0.58.24a6.42,6.42,0,0,1-2.48.49,7.27,7.27,0,0,1-3.62-1,7.09,7.09,0,0,0-7.07,0,7.27,7.27,0,0,1-3.62,1,6.42,6.42,0,0,1-2.48-.49l-0.58-.24a6.93,6.93,0,0,1-3.94-4.69,7.12,7.12,0,0,0-5-5,6.93,6.93,0,0,1-4.69-3.94l-0.24-.58a6.86,6.86,0,0,1,.51-6.1,7.09,7.09,0,0,0,0-7.07,6.86,6.86,0,0,1-.51-6.1l0.24-.58a6.93,6.93,0,0,1,4.69-3.94,7.13,7.13,0,0,0,5-5,6.93,6.93,0,0,1,3.94-4.69L20.36,6a6.42,6.42,0,0,1,2.48-.49M37.16,5a7.76,7.76,0,0,0-3.87,1.06,6.59,6.59,0,0,1-6.57,0A7.76,7.76,0,0,0,22.84,5a6.93,6.93,0,0,0-2.67.53l-0.58.24a7.44,7.44,0,0,0-4.23,5,6.63,6.63,0,0,1-4.62,4.62,7.44,7.44,0,0,0-5,4.23l-0.24.58A7.38,7.38,0,0,0,6,26.76a6.59,6.59,0,0,1,0,6.57,7.38,7.38,0,0,0-.53,6.54l0.24,0.58a7.44,7.44,0,0,0,5,4.23,6.63,6.63,0,0,1,4.62,4.62,7.44,7.44,0,0,0,4.23,5l0.58,0.24a6.93,6.93,0,0,0,2.67.53A7.76,7.76,0,0,0,26.71,54a6.59,6.59,0,0,1,6.57,0,7.76,7.76,0,0,0,3.87,1.06,6.93,6.93,0,0,0,2.67-.53l0.58-.24a7.44,7.44,0,0,0,4.23-5,6.63,6.63,0,0,1,4.62-4.62,7.44,7.44,0,0,0,5-4.23l0.24-.58A7.38,7.38,0,0,0,54,33.33a6.59,6.59,0,0,1,0-6.57,7.38,7.38,0,0,0,.53-6.54l-0.24-.58a7.44,7.44,0,0,0-5-4.23,6.63,6.63,0,0,1-4.62-4.62,7.44,7.44,0,0,0-4.23-5l-0.58-.24A6.93,6.93,0,0,0,37.16,5h0Z" transform="translate(-4.95 -5)"/>
    <circle class="cls-1" cx="25.05" cy="25.05" r="19.8"/>
    <path class="cls-2" d="M30,10.75A19.3,19.3,0,1,1,10.7,30,19.32,19.32,0,0,1,30,10.75m0-.5A19.8,19.8,0,1,0,49.8,30,19.8,19.8,0,0,0,30,10.25h0Z" transform="translate(-4.95 -5)"/>
    <g>
      <path class="cls-2" d="M25.7,24.59a3.62,3.62,0,0,1,2.6.89,3,3,0,0,1,.93,2.34,3.15,3.15,0,0,1-.67,2A7.26,7.26,0,0,1,27,31.19l-0.92.65c-0.59.42-1,.72-1.21,0.91a3.11,3.11,0,0,0-.64.75l-0.46.76h5.1a0.36,0.36,0,0,1,.36.36v0.3a0.36,0.36,0,0,1-.36.36H22.74a0.37,0.37,0,0,1-.29-0.14,0.33,0.33,0,0,1-.07-0.28,4.81,4.81,0,0,1,.4-1.18,6,6,0,0,1,2.14-2.25A17.07,17.07,0,0,0,27,29.75a2.89,2.89,0,0,0,.85-2,2.34,2.34,0,0,0-.53-1.55,2.16,2.16,0,0,0-3.42.39,3,3,0,0,0-.24.87,0.35,0.35,0,0,1-.35.28H22.86a0.37,0.37,0,0,1-.28-0.13,0.33,0.33,0,0,1-.08-0.27,4.13,4.13,0,0,1,.39-1.27,2.87,2.87,0,0,1,2.81-1.47m0-.5a3.35,3.35,0,0,0-3.25,1.74A4.6,4.6,0,0,0,22,27.24a0.86,0.86,0,0,0,.85,1h0.49a0.84,0.84,0,0,0,.84-0.71,2.54,2.54,0,0,1,.2-0.72A1.67,1.67,0,0,1,27,26.51a1.85,1.85,0,0,1,.41,1.23,2.39,2.39,0,0,1-.71,1.67,17,17,0,0,1-2,1.62,6.46,6.46,0,0,0-2.31,2.46,5.2,5.2,0,0,0-.43,1.27,0.86,0.86,0,0,0,.85,1h6.15a0.86,0.86,0,0,0,.86-0.86v-0.3a0.86,0.86,0,0,0-.86-0.86H24.67a2.59,2.59,0,0,1,.53-0.63q0.32-.27,1.18-0.88l0.92-.65A7.69,7.69,0,0,0,29,30.11a3.66,3.66,0,0,0,.77-2.29,3.53,3.53,0,0,0-1.09-2.71,4.13,4.13,0,0,0-2.94-1h0Z" transform="translate(-4.95 -5)"/>
      <path class="cls-2" d="M34.93,24.56a2.8,2.8,0,0,1,2.68,1.31,8.62,8.62,0,0,1,.83,4.2,8.58,8.58,0,0,1-.83,4.19,2.81,2.81,0,0,1-2.68,1.31,2.81,2.81,0,0,1-2.68-1.31,8.58,8.58,0,0,1-.83-4.19,8.62,8.62,0,0,1,.83-4.2,2.8,2.8,0,0,1,2.68-1.31m0,10.14a1.81,1.81,0,0,0,1.82-1.42,11.71,11.71,0,0,0,.34-3.21,11.56,11.56,0,0,0-.34-3.26,1.8,1.8,0,0,0-1.81-1.36,1.82,1.82,0,0,0-1.82,1.36,11.16,11.16,0,0,0-.35,3.27,11.3,11.3,0,0,0,.35,3.22,1.83,1.83,0,0,0,1.83,1.41m0-10.64a3.29,3.29,0,0,0-3.12,1.56,9,9,0,0,0-.89,4.44,9,9,0,0,0,.89,4.44,3.29,3.29,0,0,0,3.12,1.56A3.29,3.29,0,0,0,38,34.51a9,9,0,0,0,.89-4.44A9,9,0,0,0,38,25.63a3.29,3.29,0,0,0-3.12-1.56h0Zm0,10.14a1.32,1.32,0,0,1-1.35-1.06,11,11,0,0,1-.33-3.07A10.82,10.82,0,0,1,33.58,27a1.31,1.31,0,0,1,1.35-1,1.29,1.29,0,0,1,1.34,1,11.23,11.23,0,0,1,.32,3.11,11.36,11.36,0,0,1-.32,3.07,1.31,1.31,0,0,1-1.34,1.06h0Z" transform="translate(-4.95 -5)"/>
    </g>
  </g>
</svg>
