<svg id="Layer_1" data-name="Layer 1" xmlns="http://www.w3.org/2000/svg" viewBox="0 0 59.2 60">
  <defs>
    <style>
      .cls-1 {
        fill: #d4d8d8;
      }

      .cls-2 {
        fill: #484c4c;
      }

      .cls-3 {
        fill: #fff;
      }

      .cls-4 {
        fill: none;
        stroke: #484c4c;
        stroke-miterlimit: 10;
        stroke-width: 0.5px;
      }
    </style>
  </defs>
  <title>tons_per_month_icon</title>
  <g>
    <path class="cls-1" d="M156.59,50.5L154.48,53a0.5,0.5,0,0,1-.77,0l-2.12-2.54-1.88-3a5,5,0,0,1-.74-2.15l-0.27-2.72a5,5,0,0,1,.27-2.18l2.12-5.94,3-4.5h4l1.5,4.5L160,40.83a5,5,0,0,1-.08,1.34l-0.69,3.44a5,5,0,0,1-.66,1.67Z" transform="translate(-140.4 -5)"/>
    <path class="cls-1" d="M183.6,50.5L185.72,53a0.5,0.5,0,0,0,.77,0l2.12-2.54,1.88-3a5,5,0,0,0,.74-2.15l0.27-2.72a5,5,0,0,0-.27-2.18L189.1,34.5l-3-4.5h-4l-1.5,4.5-0.45,6.33a5,5,0,0,0,.08,1.34l0.69,3.44a5,5,0,0,0,.66,1.67Z" transform="translate(-140.4 -5)"/>
    <path class="cls-2" d="M157.74,30.5l1.37,4.1,0.45,6.26a4.5,4.5,0,0,1-.08,1.2l-0.69,3.44a4.49,4.49,0,0,1-.6,1.5l-2,3.2-2.09,2.51L152,50.21l-1.86-3a4.52,4.52,0,0,1-.66-1.94l-0.27-2.72a4.53,4.53,0,0,1,.24-2l2.1-5.88,2.82-4.23h3.37m0.36-.5h-4l-3,4.5L149,40.44a5,5,0,0,0-.27,2.18L149,45.34a5,5,0,0,0,.74,2.15l1.88,3L153.72,53a0.5,0.5,0,0,0,.77,0l2.12-2.54,2-3.23a5,5,0,0,0,.66-1.67L160,42.16a5,5,0,0,0,.08-1.34L159.6,34.5,158.1,30h0Z" transform="translate(-140.4 -5)"/>
    <path class="cls-2" d="M185.84,30.5l2.82,4.23,2.1,5.88a4.53,4.53,0,0,1,.24,2l-0.27,2.72a4.52,4.52,0,0,1-.66,1.94l-1.86,3-2.09,2.51L184,50.21,182,47a4.49,4.49,0,0,1-.6-1.5l-0.69-3.44a4.5,4.5,0,0,1-.08-1.2l0.45-6.26,1.37-4.1h3.37m0.27-.5h-4l-1.5,4.5-0.45,6.33a5,5,0,0,0,.08,1.34l0.69,3.44a5,5,0,0,0,.66,1.67l2,3.23L185.73,53a0.5,0.5,0,0,0,.77,0l2.12-2.54,1.88-3a5,5,0,0,0,.74-2.15l0.27-2.72a5,5,0,0,0-.27-2.18l-2.12-5.94-3-4.5h0Z" transform="translate(-140.4 -5)"/>
    <path class="cls-3" d="M157.81,35.14a7.5,7.5,0,0,0-12.22,4c0,0.14-1.64,11-2.05,13.73a0.24,0.24,0,0,1-.45.09l-1-1.47a28.21,28.21,0,0,1-1.67-9.75,12.76,12.76,0,0,1,12.5-13,12.09,12.09,0,0,1,6.7,2l-0.2,2.38Z" transform="translate(-140.4 -5)"/>
    <path class="cls-1" d="M143.54,52.77c0.58-3.66,3.8-19.47,9.91-19.47l-0.54-.49a8.54,8.54,0,0,0-7.81,6.34c0,0.11-1.79,13.35-1.79,13.35S143.47,53.17,143.54,52.77Z" transform="translate(-140.4 -5)"/>
    <path class="cls-3" d="M182.19,35.14a7.5,7.5,0,0,1,12.22,4c0,0.14,1.64,11,2.05,13.73a0.24,0.24,0,0,0,.45.09l1-1.47a28.21,28.21,0,0,0,1.67-9.75,12.76,12.76,0,0,0-12.5-13,12.09,12.09,0,0,0-6.7,2l0.2,2.38Z" transform="translate(-140.4 -5)"/>
    <path class="cls-1" d="M196.46,52.77c-0.58-3.66-3.8-19.47-9.91-19.47l0.54-.49a8.54,8.54,0,0,1,7.81,6.34c0,0.11,1.79,13.35,1.79,13.35S196.53,53.17,196.46,52.77Z" transform="translate(-140.4 -5)"/>
    <path class="cls-1" d="M154.67,29.36a6.55,6.55,0,0,1,2.93.86l4.21-12.72V16.25h-1.07Z" transform="translate(-140.4 -5)"/>
    <path class="cls-1" d="M179.47,16.25H178.4V17.5l4.19,12.67a6.6,6.6,0,0,1,3-.81Z" transform="translate(-140.4 -5)"/>
    <path class="cls-2" d="M161.31,16.75v0.67l-4,12.12a6,6,0,0,0-1.88-.61l5.64-12.18h0.25m0.5-.5h-1.07l-6.07,13.11a6.55,6.55,0,0,1,2.93.86l4.21-12.72V16.25h0Z" transform="translate(-140.4 -5)"/>
    <path class="cls-2" d="M179.15,16.75l5.64,12.17a6,6,0,0,0-1.9.57l-4-12.07V16.75h0.25m0.32-.5H178.4V17.5l4.19,12.67a6.6,6.6,0,0,1,3-.81l-6.07-13.11h0Z" transform="translate(-140.4 -5)"/>
    <polygon class="cls-1" points="31.24 17 28.15 17 28.7 12 30.7 12 31.24 17"/>
    <path class="cls-3" d="M177.9,16" transform="translate(-140.4 -5)"/>
    <path class="cls-1" d="M174.1,15.5h-8a1,1,0,0,1-1-1v-1h10v1A1,1,0,0,1,174.1,15.5Z" transform="translate(-140.4 -5)"/>
    <path class="cls-3" d="M154.67,29.36a11.85,11.85,0,0,1,2.93.86l1.48-2.72,2-5.67a0.5,0.5,0,0,0-.3-0.64l-2.2-.81a0.5,0.5,0,0,0-.63.27l-2.41,5.44Z" transform="translate(-140.4 -5)"/>
    <path class="cls-3" d="M184.68,26.08l-2.41-5.44a0.5,0.5,0,0,0-.63-0.27l-2.2.81a0.5,0.5,0,0,0-.3.64l2,5.67,1.45,2.67a11.94,11.94,0,0,1,3-.81Z" transform="translate(-140.4 -5)"/>
    <path class="cls-1" d="M175.1,14h-10V13.5a1,1,0,0,1,1-1h8a1,1,0,0,1,1,1V14Z" transform="translate(-140.4 -5)"/>
    <path class="cls-1" d="M172.1,13h-4V7a2,2,0,0,1,2-2h0a2,2,0,0,1,2,2v6Z" transform="translate(-140.4 -5)"/>
    <circle class="cls-3" cx="29.7" cy="2" r="1"/>
    <path class="cls-2" d="M152.9,29.25A11.61,11.61,0,0,1,159.08,31L158.92,33l-1.18,1.48A8,8,0,0,0,145.1,39c0,0.11-.69,4.54-2,13.13l-0.62-.9a27.87,27.87,0,0,1-1.62-9.52,12.27,12.27,0,0,1,12-12.5m0-.5a12.76,12.76,0,0,0-12.5,13,28.21,28.21,0,0,0,1.67,9.75l1,1.47a0.29,0.29,0,0,0,.23.12,0.23,0.23,0,0,0,.23-0.21c0.41-2.74,2-13.59,2.05-13.73a7.5,7.5,0,0,1,12.22-4l1.59-2,0.2-2.38a12.09,12.09,0,0,0-6.7-2h0Z" transform="translate(-140.4 -5)"/>
    <rect class="cls-3" x="12.6" y="36" width="34" height="24" rx="1" ry="1"/>
    <path class="cls-2" d="M186,41.5a0.5,0.5,0,0,1,.5.5V64a0.5,0.5,0,0,1-.5.5H154a0.5,0.5,0,0,1-.5-0.5V42a0.5,0.5,0,0,1,.5-0.5h32m0-.5H154a1,1,0,0,0-1,1V64a1,1,0,0,0,1,1h32a1,1,0,0,0,1-1V42a1,1,0,0,0-1-1h0Z" transform="translate(-140.4 -5)"/>
    <path class="cls-2" d="M150.93,33.63c-2.83,1.93-4.83,6.88-6.1,11.26,0.4-3,.74-5.5.76-5.63a8.16,8.16,0,0,1,5.35-5.62m2-.82a8.54,8.54,0,0,0-7.81,6.34c0,0.11-1.79,13.35-1.79,13.35a0.93,0.93,0,0,0,.18.4s0,0,.06-0.13c0.58-3.66,3.8-19.47,9.91-19.47l-0.54-.49h0Z" transform="translate(-140.4 -5)"/>
    <path class="cls-2" d="M187.1,29.25a12.27,12.27,0,0,1,12,12.5,27.87,27.87,0,0,1-1.62,9.52l-0.61.9c-1.28-8.6-1.94-13-2-13.13a8,8,0,0,0-12.63-4.6L181.08,33,180.92,31a11.61,11.61,0,0,1,6.18-1.78m0-.5a12.09,12.09,0,0,0-6.7,2l0.2,2.38,1.59,2a7.5,7.5,0,0,1,12.22,4c0,0.14,1.64,11,2.05,13.73a0.23,0.23,0,0,0,.23.21,0.29,0.29,0,0,0,.23-0.12l1-1.47a28.21,28.21,0,0,0,1.67-9.75,12.76,12.76,0,0,0-12.5-13h0Z" transform="translate(-140.4 -5)"/>
    <path class="cls-1" d="M183.06,33.13A2.74,2.74,0,0,1,181,35.8a56.17,56.17,0,0,1-10.92,1.45,56.17,56.17,0,0,1-10.92-1.45,2.74,2.74,0,0,1-2.08-2.67h0a2.75,2.75,0,0,1,1.81-2.58,41.14,41.14,0,0,1,11.24-2.3,40.31,40.31,0,0,1,11.16,2.29,2.75,2.75,0,0,1,1.79,2.58h0Z" transform="translate(-140.4 -5)"/>
    <path class="cls-2" d="M170.1,28.75a40,40,0,0,1,11,2.26,2.26,2.26,0,0,1,1.47,2.12,2.24,2.24,0,0,1-1.7,2.18,55.83,55.83,0,0,1-10.8,1.43,55.83,55.83,0,0,1-10.8-1.43A2.25,2.25,0,0,1,159,31a40.79,40.79,0,0,1,11.07-2.27m0-.5a41.14,41.14,0,0,0-11.24,2.3,2.75,2.75,0,0,0-1.81,2.58h0a2.74,2.74,0,0,0,2.08,2.67,56.17,56.17,0,0,0,10.92,1.45A56.17,56.17,0,0,0,181,35.8a2.74,2.74,0,0,0,2.08-2.67h0a2.75,2.75,0,0,0-1.79-2.58,40.31,40.31,0,0,0-11.16-2.29h0Z" transform="translate(-140.4 -5)"/>
    <path class="cls-2" d="M158.4,20.85h0l2.2,0.81-2,5.64-1.24,2.29a12.54,12.54,0,0,0-2.08-.63L156,26.25l2.39-5.4h0m0-.5a0.5,0.5,0,0,0-.46.3l-2.41,5.44-0.86,3.28a11.85,11.85,0,0,1,2.93.86l1.48-2.72,2-5.67a0.5,0.5,0,0,0-.3-0.64l-2.2-.81a0.5,0.5,0,0,0-.17,0h0Z" transform="translate(-140.4 -5)"/>
    <path class="cls-2" d="M181.81,20.85h0l2.39,5.4,0.71,2.7a12.44,12.44,0,0,0-2.1.59l-1.22-2.24-2-5.64,2.2-.81m0-.5a0.5,0.5,0,0,0-.17,0l-2.2.81a0.5,0.5,0,0,0-.3.64l2,5.67,1.45,2.67a11.94,11.94,0,0,1,3-.81l-0.86-3.28-2.41-5.44a0.5,0.5,0,0,0-.46-0.3h0Z" transform="translate(-140.4 -5)"/>
    <path class="cls-2" d="M170.1,5.5A1.5,1.5,0,0,1,171.6,7v5.5h-3V7a1.5,1.5,0,0,1,1.5-1.5m0-.5a2,2,0,0,0-2,2v6h4V7a2,2,0,0,0-2-2h0Z" transform="translate(-140.4 -5)"/>
    <path class="cls-3" d="M172.1,51.5l-1.58,2.38a0.5,0.5,0,0,1-.83,0L168.1,51.5l-3.24-4.05a5,5,0,0,1-1-2.14l-0.52-2.62a5,5,0,0,1,.1-2.35l1.67-5.83,2.7-4.05a1,1,0,0,1,.83-0.45h2.93a1,1,0,0,1,.83.45l2.7,4.05,1.67,5.83a5,5,0,0,1,.1,2.35l-0.52,2.62a5,5,0,0,1-1,2.14Z" transform="translate(-140.4 -5)"/>
    <path class="cls-2" d="M171.56,30.5a0.5,0.5,0,0,1,.42.22l2.66,4,1.65,5.76a4.52,4.52,0,0,1,.09,2.12l-0.52,2.62a4.52,4.52,0,0,1-.9,1.93l-3.27,4.09L170.1,53.6l-1.61-2.41-3.24-4.05a4.52,4.52,0,0,1-.9-1.93l-0.52-2.62a4.52,4.52,0,0,1,.09-2.12l1.65-5.76,2.66-4a0.5,0.5,0,0,1,.42-0.22h2.93m0-.5h-2.93a1,1,0,0,0-.83.45l-2.7,4.05-1.67,5.83a5,5,0,0,0-.1,2.35l0.52,2.62a5,5,0,0,0,1,2.14l3.24,4.05,1.58,2.38a0.5,0.5,0,0,0,.83,0l1.58-2.38,3.24-4.05a5,5,0,0,0,1-2.14l0.52-2.62a5,5,0,0,0-.1-2.35L175.1,34.5l-2.7-4.05a1,1,0,0,0-.83-0.45h0Z" transform="translate(-140.4 -5)"/>
    <path class="cls-2" d="M170.65,17.5l0.44,4h-2l0.44-4h1.1m0.45-.5h-2l-0.55,5h3.1l-0.55-5h0Z" transform="translate(-140.4 -5)"/>
    <path class="cls-3" d="M172.1,51.5l-1.58,2.38a0.5,0.5,0,0,1-.83,0L168.1,51.5v-21a0.5,0.5,0,0,1,.5-0.5h3a0.5,0.5,0,0,1,.5.5v21Z" transform="translate(-140.4 -5)"/>
    <path class="cls-2" d="M171.6,30.5V51.35l-1.5,2.25-1.5-2.25V30.5h3m0-.5h-3a0.5,0.5,0,0,0-.5.5v21l1.58,2.38a0.5,0.5,0,0,0,.83,0l1.58-2.38v-21a0.5,0.5,0,0,0-.5-0.5h0Z" transform="translate(-140.4 -5)"/>
    <path class="cls-3" d="M171.6,30.5L171.1,32v2a0.5,0.5,0,0,1-.5.5h-1a0.5,0.5,0,0,1-.5-0.5V32l-0.5-1.5-1-4L168.06,22a0.5,0.5,0,0,1,.5-0.45h3.09a0.5,0.5,0,0,1,.5.45l0.45,4.55Z" transform="translate(-140.4 -5)"/>
    <path class="cls-2" d="M172.1,32h-0.5v0.5h-3V32h-0.5a0.5,0.5,0,0,0-.5.5v1a0.5,0.5,0,0,0,.5.5h0.5V33.5h3V34h0.5a0.5,0.5,0,0,0,.5-0.5v-1A0.5,0.5,0,0,0,172.1,32Z" transform="translate(-140.4 -5)"/>
    <path class="cls-2" d="M179.6,17.5h-19a0.5,0.5,0,0,1-.5-0.5h0a2,2,0,0,1,2-2h16a2,2,0,0,1,2,2h0A0.5,0.5,0,0,1,179.6,17.5Z" transform="translate(-140.4 -5)"/>
    <path class="cls-2" d="M174.6,14v0.5a0.5,0.5,0,0,1-.5.5h-8a0.5,0.5,0,0,1-.5-0.5V14h9m0.5-.5h-10v1a1,1,0,0,0,1,1h8a1,1,0,0,0,1-1v-1h0Z" transform="translate(-140.4 -5)"/>
    <path class="cls-2" d="M174.1,13a0.5,0.5,0,0,1,.5.5h-9a0.5,0.5,0,0,1,.5-0.5h8m0-.5h-8a1,1,0,0,0-1,1V14h10V13.5a1,1,0,0,0-1-1h0Z" transform="translate(-140.4 -5)"/>
    <path class="cls-4" d="M177.9,16" transform="translate(-140.4 -5)"/>
    <circle class="cls-2" cx="40.2" cy="28.15" r="1"/>
    <circle class="cls-2" cx="44.19" cy="26.5" r="1"/>
    <path class="cls-2" d="M189.07,33.63a8.15,8.15,0,0,1,5.34,5.6c0,0.15.36,2.66,0.76,5.65-1.28-4.38-3.28-9.33-6.1-11.26m-2-.82-0.54.49c6.1,0,9.33,15.81,9.91,19.47,0,0.09,0,.13.06,0.13a0.93,0.93,0,0,0,.18-0.4s-1.77-13.24-1.79-13.35a8.54,8.54,0,0,0-7.81-6.34h0Z" transform="translate(-140.4 -5)"/>
    <circle class="cls-2" cx="15.01" cy="26.5" r="1"/>
    <circle class="cls-1" cx="178.6" cy="16.24" r="0.5" transform="translate(-134.46 59.71) rotate(-20.88)"/>
    <circle class="cls-1" cx="161.6" cy="16.24" r="0.5" transform="translate(-51.56 156.44) rotate(-69.12)"/>
    <path class="cls-2" d="M171.64,22h0l0.45,4.46-1,3.88-0.5,1.5,0,0.08V34h-1V31.92l0-.08-0.49-1.46-1-3.92L168.56,22h3.09m0-.5h-3.09a0.5,0.5,0,0,0-.5.45L167.6,26.5l1,4,0.5,1.5v2a0.5,0.5,0,0,0,.5.5h1a0.5,0.5,0,0,0,.5-0.5V32l0.5-1.5,1-4L172.14,22a0.5,0.5,0,0,0-.5-0.45h0Z" transform="translate(-140.4 -5)"/>
    <circle class="cls-2" cx="19.11" cy="28.15" r="1"/>
    <path class="cls-2" d="M170.1,6.5a0.5,0.5,0,1,1-.5.5,0.5,0.5,0,0,1,.5-0.5m0-.5a1,1,0,1,0,1,1,1,1,0,0,0-1-1h0Z" transform="translate(-140.4 -5)"/>
  </g>
</svg>
