<svg id="Layer_1" data-name="Layer 1" xmlns="http://www.w3.org/2000/svg" viewBox="0 0 52.47 50.85">
  <defs>
    <style>
      .cls-1 {
        fill: #fff;
      }

      .cls-2 {
        fill: #484c4c;
      }

      .cls-3 {
        fill: #d4d8d8;
      }
    </style>
  </defs>
  <title>5-th_in_region_icon</title>
  <g>
    <path class="cls-1" d="M294.73,11.37a1,1,0,0,0-1,1c0.16,15.33,3.9,28.12,8.94,31.87a6.83,6.83,0,0,1,2.83,5.48,7,7,0,0,1-4.88,6.56A4,4,0,0,0,298,60.15v0.6a1,1,0,0,0,1,1h22a1,1,0,0,0,1-1v-0.6a4,4,0,0,0-2.62-3.85,7,7,0,0,1-4.88-6.56,6.83,6.83,0,0,1,2.83-5.48c5-3.75,8.78-16.54,8.94-31.87a1,1,0,0,0-1-1H294.73Z" transform="translate(-283.76 -10.89)"/>
    <path class="cls-2" d="M305.2,51h9.45a0.5,0.5,0,0,0,.5-0.5v-1a0.5,0.5,0,0,0-.5-0.5H305.2a0.5,0.5,0,0,0-.5.5v1A0.5,0.5,0,0,0,305.2,51Z" transform="translate(-283.76 -10.89)"/>
    <path class="cls-2" d="M298,60.25h24l-0.5-.5h-23Z" transform="translate(-283.76 -10.89)"/>
    <path class="cls-2" d="M305.35,48h9.29l-0.06-.5h-9.22V48Z" transform="translate(-283.76 -10.89)"/>
    <path class="cls-2" d="M304.95,52.5H315L314.8,52h-9.6Z" transform="translate(-283.76 -10.89)"/>
    <ellipse class="cls-3" cx="26.24" cy="17.48" rx="10.25" ry="10"/>
    <path class="cls-2" d="M310,18.87a9.5,9.5,0,1,1-9.75,9.5,9.64,9.64,0,0,1,9.75-9.5m0-.5a10,10,0,1,0,10.25,10,10.13,10.13,0,0,0-10.25-10h0Z" transform="translate(-283.76 -10.89)"/>
    <path class="cls-1" d="M307.79,30.89a0.54,0.54,0,0,1,.52.36,2,2,0,0,0,.44.81,1.5,1.5,0,0,0,1.14.41,1.54,1.54,0,0,0,1.32-.61,2.49,2.49,0,0,0,.45-1.53,2.66,2.66,0,0,0-.42-1.53,1.48,1.48,0,0,0-1.32-.63,2.26,2.26,0,0,0-.73.11,1.44,1.44,0,0,0-.67.48,0.54,0.54,0,0,1-.45.23l-1.19-.06a0.56,0.56,0,0,1-.53-0.63L307,22.86a0.56,0.56,0,0,1,.55-0.49h5.47a0.56,0.56,0,0,1,.56.56v0.86a0.56,0.56,0,0,1-.56.56h-4.28l-0.42,2.59a5,5,0,0,1,.84-0.47,3.58,3.58,0,0,1,1.23-.19,3.58,3.58,0,0,1,3.65,3.86A4.51,4.51,0,0,1,313,33.08a3.83,3.83,0,0,1-3.15,1.29,4.17,4.17,0,0,1-2.77-.91A3.29,3.29,0,0,1,306,31.59a0.57,0.57,0,0,1,.55-0.7h1.24Z" transform="translate(-283.76 -10.89)"/>
    <path class="cls-2" d="M313.06,22.87a0.06,0.06,0,0,1,.06.06v0.86a0.06,0.06,0,0,1-.06.06h-4.7l-0.07.42-0.42,2.59L307.68,28l0.95-.62a4.4,4.4,0,0,1,.74-0.42,3.1,3.1,0,0,1,1.06-.16,3.08,3.08,0,0,1,3.15,3.36,4,4,0,0,1-.94,2.62,3.33,3.33,0,0,1-2.76,1.11,3.66,3.66,0,0,1-2.45-.79,2.78,2.78,0,0,1-.94-1.6s0-.05.06-0.09h1.28a2.49,2.49,0,0,0,.56,1,2,2,0,0,0,1.5.57,2,2,0,0,0,1.72-.81,3,3,0,0,0,.55-1.83,3.16,3.16,0,0,0-.51-1.81,2,2,0,0,0-1.73-.85,2.77,2.77,0,0,0-.9.14,1.94,1.94,0,0,0-.89.65,0.07,0.07,0,0,0,0,0l-1.19-.06,0,0.5,0-.56,0.69-5.46a0.06,0.06,0,0,1,.06-0.05h5.47m0-.5H307.6a0.56,0.56,0,0,0-.55.49l-0.69,5.46a0.56,0.56,0,0,0,.53.63L308.07,29h0a0.54,0.54,0,0,0,.42-0.23,1.44,1.44,0,0,1,.67-0.48,2.26,2.26,0,0,1,.73-0.11,1.48,1.48,0,0,1,1.32.63,2.66,2.66,0,0,1,.42,1.53,2.49,2.49,0,0,1-.45,1.53,1.54,1.54,0,0,1-1.32.61,1.5,1.5,0,0,1-1.14-.41,2,2,0,0,1-.44-0.81,0.54,0.54,0,0,0-.52-0.36h-1.24a0.57,0.57,0,0,0-.55.7,3.29,3.29,0,0,0,1.11,1.88,4.17,4.17,0,0,0,2.77.91A3.83,3.83,0,0,0,313,33.08a4.51,4.51,0,0,0,1.05-2.93,3.58,3.58,0,0,0-3.65-3.86,3.57,3.57,0,0,0-1.23.19,5,5,0,0,0-.84.47l0.42-2.59h4.28a0.56,0.56,0,0,0,.56-0.56V22.93a0.56,0.56,0,0,0-.56-0.56h0Z" transform="translate(-283.76 -10.89)"/>
    <path class="cls-2" d="M325.27,11.87a0.51,0.51,0,0,1,.5.51C325.62,27.2,322,40.14,317,43.86a7.3,7.3,0,0,0-3,5.88,7.57,7.57,0,0,0,5.22,7,3.52,3.52,0,0,1,2.28,3.37v0.6a0.5,0.5,0,0,1-.5.5H299a0.5,0.5,0,0,1-.5-0.5v-0.6a3.52,3.52,0,0,1,2.28-3.37,7.57,7.57,0,0,0,5.22-7,7.3,7.3,0,0,0-3-5.88c-5-3.72-8.58-16.66-8.73-31.48a0.51,0.51,0,0,1,.5-0.51h30.53m0-.5H294.73a1,1,0,0,0-1,1c0.16,15.33,3.9,28.12,8.94,31.87a6.83,6.83,0,0,1,2.83,5.48,7,7,0,0,1-4.88,6.56A4,4,0,0,0,298,60.15v0.6a1,1,0,0,0,1,1h22a1,1,0,0,0,1-1v-0.6a4,4,0,0,0-2.62-3.85,7,7,0,0,1-4.88-6.56,6.83,6.83,0,0,1,2.83-5.48c5-3.75,8.78-16.54,8.94-31.87a1,1,0,0,0-1-1h0Z" transform="translate(-283.76 -10.89)"/>
    <path class="cls-2" d="M294.23,12.81V11.88l0.5-.5-0.05.05a1.64,1.64,0,0,1-2,.23,6,6,0,0,0-8.93,5.24h0a20,20,0,0,0,13.63,19l0.47-.17C295.65,29.62,294.36,21.52,294.23,12.81Zm-9,4.22a4.62,4.62,0,0,1,4.5-4.63,4.1,4.1,0,0,1,2.76.83A3.78,3.78,0,0,1,293.83,16a76.75,76.75,0,0,0,2.32,15.88,1,1,0,0,1-1.51,1.1C289.42,29.73,285.32,24.45,285.27,17Z" transform="translate(-283.76 -10.89)"/>
    <path class="cls-2" d="M322.13,35.68l0.47,0.17a20,20,0,0,0,13.63-19h0a6,6,0,0,0-8.93-5.24,1.64,1.64,0,0,1-2-.23l-0.05-.05,0.5,0.5v0.93C325.64,21.52,324.35,29.62,322.13,35.68Zm3.22-2.7a1,1,0,0,1-1.51-1.1A76.75,76.75,0,0,0,326.17,16a3.78,3.78,0,0,1,1.31-2.78,4.1,4.1,0,0,1,2.76-.83,4.62,4.62,0,0,1,4.5,4.63C334.68,24.45,330.58,29.73,325.36,33Z" transform="translate(-283.76 -10.89)"/>
  </g>
</svg>
