<?xml version="1.0" encoding="utf-8"?>
<!-- Generator: Adobe Illustrator 19.2.0, SVG Export Plug-In . SVG Version: 6.00 Build 0)  -->
<svg version="1.1" id="Layer_1" xmlns="http://www.w3.org/2000/svg" xmlns:xlink="http://www.w3.org/1999/xlink" x="0px" y="0px"
	 viewBox="0 0 175 45" style="enable-background:new 0 0 175 45;" xml:space="preserve">
<style type="text/css">
	.st0{fill:#F0F7F7;}
</style>
<g>
	<g id="pick_6_">
		<path class="st0" d="M51,27v-9.2c0-1.5,1.2-2.8,2.8-2.8l7.7,0v2.2l-6.1,0c-0.5,0-0.8,0.4-0.8,0.8v8.4c0,0.5,0.4,0.8,0.8,0.8h6.1
			v2.3l-7.7,0C52.2,29.7,51,28.5,51,27z"/>
		<path class="st0" d="M101.7,27v-9.2c0-1.5,1.2-2.8,2.8-2.8l7.7,0v2.2l-6.1,0c-0.5,0-0.8,0.4-0.8,0.8v8.4c0,0.5,0.4,0.8,0.8,0.8
			h6.1v2.3l-7.7,0C102.9,29.7,101.7,28.5,101.7,27z"/>
		<path class="st0" d="M70.8,23.5v-3.9h3.4l0,10.2h-3.5v-4.1h-3.3v4.1H64V19.7h3.6v3.9H70.8z"/>
		<path class="st0" d="M159.8,19.7h3.5l0,10.2h-3.4v-6l-3.5,6H153V19.7h3.6v5.7L159.8,19.7z"/>
		<path class="st0" d="M79.1,23.5h4.1l0-0.8c0-0.5-0.4-0.8-0.8-0.8h-5.5v-2.2h6.8c1.8,0,3.2,1.4,3.2,3.2v7h-7.7
			c-1.5,0-2.8-1.2-2.8-2.8v-0.8C76.4,24.8,77.6,23.5,79.1,23.5z M83.2,27.4v-1.7h-2.5c-0.5,0-0.8,0.4-0.8,0.8v0
			c0,0.5,0.4,0.8,0.8,0.8H83.2z"/>
		<path class="st0" d="M124.6,25.7h-7l0,0.8c0,0.5,0.4,0.8,0.8,0.8h6.2v2.5h-7.7c-1.5,0-2.8-1.2-2.8-2.8v-4.7c0-1.5,1.2-2.8,2.8-2.8
			h5c1.5,0,2.8,1.2,2.8,2.8V25.7z M117.7,22.7v0.8h3.6v-0.8c0-0.5-0.4-0.8-0.8-0.8h-1.9C118.1,21.9,117.7,22.3,117.7,22.7z"/>
		<path class="st0" d="M148,29.9h-8V19.7h8c1.4,0,2.5,1.1,2.5,2.5v0c0,1.4-1.1,2.5-2.5,2.5h-0.1h0.1c1.4,0,2.5,1.1,2.5,2.5v0.3
			C150.5,28.8,149.4,29.9,148,29.9z M146.1,25.7h-2.5l0,1.7h2.5c0.5,0,0.8-0.4,0.8-0.8v0C146.9,26.1,146.5,25.7,146.1,25.7z
			 M143.6,21.9v1.7h2.5c0.5,0,0.8-0.4,0.8-0.8l0,0c0-0.5-0.4-0.8-0.8-0.8H143.6z"/>
		<path class="st0" d="M134.8,29.9h-4.3l0,3.9h-3.4V19.7h7.7c1.5,0,2.8,1.2,2.8,2.8v4.7C137.5,28.6,136.3,29.9,134.8,29.9z
			 M130.6,21.9v5.5h2.5c0.5,0,0.8-0.4,0.8-0.8v-3.9c0-0.5-0.4-0.8-0.8-0.8H130.6z"/>
		<path class="st0" d="M175,29.9h-6.3c-1.5,0-2.8-1.2-2.8-2.8v-4.7c0-1.5,1.2-2.8,2.8-2.8h6.3v2.2h-5c-0.5,0-0.8,0.4-0.8,0.8v3.9
			c0,0.5,0.4,0.8,0.8,0.8h5V29.9z"/>
		<path class="st0" d="M97,29.9h-7.7V20c0-1.5,1.2-2.8,2.8-2.8h7.2v2.5h-5.7c-0.5,0-0.8,0.4-0.8,0.8l0,1.4H97c1.5,0,2.8,1.2,2.8,2.8
			v2.5C99.8,28.6,98.5,29.9,97,29.9z M96.2,26.6v-1.7c0-0.5-0.4-0.8-0.8-0.8h-2.5v3.3h2.5C95.8,27.4,96.2,27,96.2,26.6z"/>
	</g>
</g>
<g>
	<g>
		<path class="st0" d="M34.5,4.4h-8.1c-10,0-18.1,8.1-18.1,18.1s8.1,18.1,18.1,18.1h8.1c0-2.3-1.9-4.2-4.2-4.2h-8.1
			c-7.7,0-13.9-6.2-13.9-13.9S14.6,8.6,22.2,8.6h8.1C32.6,8.6,34.5,6.7,34.5,4.4z"/>
		<path class="st0" d="M31.1,29.5h-7.5c-3.8,0-7-3.1-7-7s3.1-7,7-7h7.5c0,0.8-0.6,1.4-1.4,1.4h-7.5c-3.1,0-5.6,2.5-5.6,5.6
			s2.5,5.6,5.6,5.6h7.5C30.5,28.1,31.1,28.7,31.1,29.5z"/>
	</g>
	<g>
		<path class="st0" d="M34.3,42h-7c-10.8,0-20-8.7-20-19.5S16.5,3,27.3,3h7l0,0c-0.6-1.6-2.1-2.8-3.9-2.8h-8.1C10,0.2,0,10.2,0,22.5
			s10,22.2,22.2,22.2h8.1C32.1,44.8,33.7,43.6,34.3,42z"/>
		<path class="st0" d="M30.9,30.3h-7c-4.3,0-8.1-3.5-8.1-7.8s3.8-7.8,8.1-7.8h7l0,0c-0.3-0.3-0.7-0.6-1.1-0.6h-7.5
			c-4.6,0-8.3,3.7-8.3,8.3s3.7,8.3,8.3,8.3h7.5C30.2,30.8,30.6,30.6,30.9,30.3L30.9,30.3z"/>
	</g>
</g>
</svg>
